# xmcd CD database file
#
# Track frame offsets:
#	150
#	19323
#	36365
#	52592
#	64516
#	80524
#	95043
#	115169
#	130791
#	152515
#	168265
#	189246
#
# Disc length: 3046 seconds
#
# Revision: 1
# Processed by: cddbd v1.5.2PL0 Copyright (c) Steve Scherf et al.
# Submitted via: CDex 1.70beta2
#
DISCID=8d0be40c
DTITLE=Rox - Memoirs
DYEAR=2010
DGENRE=R&B
TTITLE0=No Going Back
TTITLE1=Do As I Say
TTITLE2=Page Unfolds
TTITLE3=I Don't Believe
TTITLE4=My Baby Left Me
TTITLE5=Forever Always Wishing
TTITLE6=Heart Ran Dry
TTITLE7=Breakfast In Bed
TTITLE8=Precious Moments
TTITLE9=Rocksteady
TTITLE10=Oh My
TTITLE11=Sad Eyes
EXTD=YEAR: 2010
EXTT0=
EXTT1=
EXTT2=
EXTT3=
EXTT4=
EXTT5=
EXTT6=
EXTT7=
EXTT8=
EXTT9=
EXTT10=
EXTT11=
PLAYORDER=
